<?xml version="1.0" encoding="UTF-8"?>
<svg id="Layer_1" xmlns="http://www.w3.org/2000/svg" version="1.1" viewBox="0 0 28 28">
  <!-- Generator: Adobe Illustrator 29.3.1, SVG Export Plug-In . SVG Version: 2.1.0 Build 151)  -->
  <defs>
    <style>
      .st0 {
        fill: #baceff;
      }
    </style>
  </defs>
  <polygon class="st0" points="10.5 2 12.2 2 14 2 15.8 2 17.5 2 19.2 2 19.2 0 17.5 0 15.8 0 14 0 12.2 0 10.5 0 8.8 0 7 0 7 2 8.8 2 10.5 2"/>
  <polygon class="st0" points="7 4 7 2 5.2 2 3.5 2 3.5 4 5.2 4 7 4"/>
  <rect class="st0" x="1.8" y="4" width="1.8" height="2"/>
  <polygon class="st0" points="1.8 8 1.8 6 0 6 0 8 0 10 0 12 1.8 12 1.8 10 1.8 8"/>
  <rect class="st0" x="1.8" y="12" width="1.8" height="2"/>
  <rect class="st0" x="3.5" y="14" width="1.8" height="2"/>
  <polygon class="st0" points="7 18 7 16 5.2 16 5.2 18 5.2 20 5.2 22 5.2 24 7 24 7 22 8.8 22 8.8 20 7 20 7 18"/>
  <rect class="st0" x="8.8" y="18" width="1.8" height="2"/>
  <rect class="st0" x="8.8" y="10" width="1.8" height="2"/>
  <rect class="st0" x="12.2" y="10" width="1.8" height="2"/>
  <rect class="st0" x="15.8" y="10" width="1.8" height="2"/>
  <polygon class="st0" points="21 4 22.8 4 22.8 2 21 2 19.2 2 19.2 4 21 4"/>
  <rect class="st0" x="22.8" y="4" width="1.8" height="2"/>
  <polygon class="st0" points="26.2 14 26.2 12 26.2 10 26.2 8 26.2 6 24.5 6 24.5 8 24.5 10 24.5 12 22.8 12 22.8 14 21 14 19.2 14 19.2 16 17.5 16 15.8 16 14 16 12.2 16 10.5 16 10.5 18 12.2 18 12.2 20 14 20 14 22 15.8 22 17.5 22 19.2 22 19.2 24 21 24 21 26 22.8 26 22.8 28 24.5 28 24.5 26 24.5 24 24.5 22 26.2 22 26.2 20 28 20 28 18 28 16 28 14 26.2 14"/>
</svg>