<?xml version="1.0" encoding="UTF-8"?>
<svg id="Layer_1" xmlns="http://www.w3.org/2000/svg" version="1.1" viewBox="0 0 28 28">
  <!-- Generator: Adobe Illustrator 29.3.1, SVG Export Plug-In . SVG Version: 2.1.0 Build 151)  -->
  <defs>
    <style>
      .st0 {
        fill: #b4ffb2;
      }
    </style>
  </defs>
  <rect class="st0" x="7.9" y="21" width="1.8" height="1.8"/>
  <rect class="st0" x="18.4" y="21" width="1.8" height="1.8"/>
  <polygon class="st0" points="21.9 1.8 21.9 3.5 21.9 5.3 21.9 7 20.1 7 18.4 7 16.6 7 14.9 7 13.1 7 11.4 7 9.6 7 7.9 7 6.1 7 6.1 5.3 6.1 3.5 6.1 1.8 4.4 1.8 4.4 3.5 4.4 5.3 4.4 7 4.4 8.8 4.4 10.5 4.4 12.3 4.4 14 4.4 15.8 4.4 17.5 4.4 19.3 6.1 19.3 6.1 21 7.9 21 7.9 19.3 7.9 17.5 6.1 17.5 6.1 15.8 6.1 14 6.1 12.3 6.1 10.5 6.1 8.8 7.9 8.8 9.6 8.8 9.6 10.5 9.6 12.3 9.6 14 9.6 15.8 11.4 15.8 11.4 14 11.4 12.3 11.4 10.5 11.4 8.8 13.1 8.8 14.9 8.8 16.6 8.8 16.6 10.5 16.6 12.3 16.6 14 16.6 15.8 18.4 15.8 18.4 14 18.4 12.3 18.4 10.5 18.4 8.8 20.1 8.8 21.9 8.8 21.9 10.5 21.9 12.3 21.9 14 21.9 15.8 21.9 17.5 20.1 17.5 20.1 19.3 20.1 21 21.9 21 21.9 19.3 23.6 19.3 23.6 17.5 23.6 15.8 23.6 14 23.6 12.3 23.6 10.5 23.6 8.8 23.6 7 23.6 5.3 23.6 3.5 23.6 1.8 21.9 1.8"/>
  <polygon class="st0" points="9.6 1.8 11.4 1.8 13.1 1.8 14.9 1.8 16.6 1.8 18.4 1.8 20.1 1.8 21.9 1.8 21.9 0 20.1 0 18.4 0 16.6 0 14.9 0 13.1 0 11.4 0 9.6 0 7.9 0 6.1 0 6.1 1.8 7.9 1.8 9.6 1.8"/>
  <rect class="st0" x="7.9" y="15.8" width="1.8" height="1.8"/>
  <rect class="st0" x="11.4" y="15.8" width="1.8" height="1.8"/>
  <rect class="st0" x="13.1" y="17.5" width="1.8" height="1.8"/>
  <rect class="st0" x="14.9" y="15.8" width="1.8" height="1.8"/>
  <rect class="st0" x="18.4" y="15.8" width="1.8" height="1.8"/>
  <polygon class="st0" points="14.9 22.8 13.1 22.8 11.4 22.8 9.6 22.8 9.6 24.5 11.4 24.5 11.4 26.3 13.1 26.3 13.1 28 14.9 28 14.9 26.3 16.6 26.3 16.6 24.5 18.4 24.5 18.4 22.8 16.6 22.8 14.9 22.8"/>
</svg>