<?xml version="1.0" encoding="UTF-8"?>
<svg id="Layer_1" xmlns="http://www.w3.org/2000/svg" version="1.1" viewBox="0 0 28 28">
  <!-- Generator: Adobe Illustrator 29.3.1, SVG Export Plug-In . SVG Version: 2.1.0 Build 151)  -->
  <defs>
    <style>
      .st0 {
        fill: #ffdffa;
      }
    </style>
  </defs>
  <polygon class="st0" points="6.8 9.9 6.8 8.2 6.8 6.6 6.8 6.5 6.8 4.9 5.1 4.9 3.4 4.9 1.7 4.9 1.7 6.5 0 6.5 0 8.2 1.7 8.2 1.7 9.9 3.4 9.9 5.1 9.9 6.8 9.9"/>
  <polygon class="st0" points="13.5 11.6 15.2 11.6 16.9 11.6 18.5 11.6 18.6 11.6 20.2 11.6 21.9 11.6 21.9 9.9 23.6 9.9 23.6 8.2 21.9 8.2 21.9 6.5 20.2 6.5 20.2 4.9 18.6 4.9 18.5 4.9 16.9 4.9 15.2 4.9 13.5 4.9 11.8 4.9 10.1 4.9 10.1 6.5 8.4 6.5 8.4 8.2 10.1 8.2 10.1 9.9 11.8 9.9 13.5 9.9 13.5 11.6"/>
  <polygon class="st0" points="26.3 18.1 26.3 16.4 24.6 16.4 23 16.4 22.9 16.4 21.3 16.4 19.6 16.4 17.9 16.4 16.2 16.4 16.2 18.1 14.5 18.1 12.8 18.1 12.8 19.8 12.8 21.5 14.5 21.5 14.5 23.2 16.2 23.2 17.9 23.2 19.6 23.2 21.3 23.2 22.9 23.2 23 23.2 24.6 23.2 24.6 21.5 26.3 21.5 26.3 19.8 28 19.8 28 18.1 26.3 18.1"/>
  <polygon class="st0" points="7.8 18.1 6.1 18.1 6.1 19.8 4.4 19.8 4.4 21.5 6.1 21.5 6.1 23.2 7.8 23.2 9.5 23.2 11.2 23.2 11.2 21.5 11.2 19.8 11.2 18.1 9.5 18.1 7.8 18.1"/>
</svg>