<?xml version="1.0" encoding="UTF-8"?>
<svg id="Layer_1" xmlns="http://www.w3.org/2000/svg" version="1.1" viewBox="0 0 28 28">
  <!-- Generator: Adobe Illustrator 29.3.1, SVG Export Plug-In . SVG Version: 2.1.0 Build 151)  -->
  <defs>
    <style>
      .st0 {
        fill: #ffe20a;
      }
    </style>
  </defs>
  <polygon class="st0" points="3.6 3.6 5.3 3.6 5.3 1.8 7 1.8 8.8 1.8 10.5 1.8 10.6 1.8 12.2 1.8 12.2 3.6 14 3.6 14 5.3 15.8 5.3 15.8 3.5 14 3.5 14 1.8 12.3 1.8 12.3 0 10.6 0 10.5 0 8.8 0 7 0 5.2 0 5.2 1.8 3.5 1.8 3.5 3.5 1.8 3.5 1.8 5.3 3.6 5.3 3.6 3.6"/>
  <polygon class="st0" points="1.8 10.5 1.8 8.8 1.8 7.1 1.8 7 1.8 5.3 0 5.3 0 7 0 7.1 0 8.8 0 10.5 0 10.6 0 12.3 1.8 12.3 1.8 10.6 1.8 10.5"/>
  <polygon class="st0" points="15.8 7.1 15.8 8.8 15.8 10.5 15.8 10.6 15.8 12.3 17.5 12.3 17.6 12.3 19.2 12.3 19.3 12.3 21 12.3 22.8 12.3 22.8 10.5 21 10.5 19.3 10.5 19.2 10.5 17.6 10.5 17.6 8.8 17.6 7.1 17.6 7 17.6 5.3 15.8 5.3 15.8 7 15.8 7.1"/>
  <rect class="st0" x="5.2" y="5.3" width="1.8" height="1.8"/>
  <rect class="st0" x="10.5" y="5.3" width="1.8" height="1.8"/>
  <polygon class="st0" points="5.3 10.5 5.3 8.8 3.5 8.8 3.5 10.6 5.2 10.6 5.2 12.3 7 12.3 7 10.5 5.3 10.5"/>
  <polygon class="st0" points="14 8.8 12.2 8.8 12.2 10.5 10.5 10.5 10.5 12.3 8.8 12.3 7 12.3 7 14.1 8.8 14.1 10.6 14.1 10.6 12.3 12.3 12.3 12.3 10.6 14 10.6 14 8.8"/>
  <rect class="st0" x="21" y="15.8" width="1.8" height="1.8"/>
  <rect class="st0" x="15.8" y="15.8" width="1.8" height="1.8"/>
  <polygon class="st0" points="14 24.5 14 22.8 12.3 22.8 12.3 21.1 12.3 21 12.3 19.3 12.3 17.6 12.3 17.5 12.3 15.8 10.6 15.8 10.5 15.8 8.8 15.8 7 15.8 5.3 15.8 5.3 14 3.6 14 3.6 12.3 1.8 12.3 1.8 14.1 3.5 14.1 3.5 15.8 5.2 15.8 5.2 17.6 7 17.6 8.8 17.6 10.5 17.6 10.5 19.3 10.5 21 10.5 21.1 10.5 22.8 12.2 22.8 12.2 24.6 14 24.6 14 26.3 15.8 26.3 15.8 24.5 14 24.5"/>
  <polygon class="st0" points="19.3 26.3 19.2 26.3 17.6 26.3 17.5 26.3 15.8 26.3 15.8 28.1 17.5 28.1 17.6 28.1 19.2 28.1 19.3 28.1 21 28.1 22.8 28.1 22.8 26.3 21 26.3 19.3 26.3"/>
  <polygon class="st0" points="26.3 15.8 26.3 14 24.6 14 24.6 12.3 22.8 12.3 22.8 14.1 24.5 14.1 24.5 15.8 26.2 15.8 26.2 17.5 26.2 17.6 26.2 19.3 26.2 21 26.2 21.1 26.2 22.8 24.5 22.8 24.5 24.5 22.8 24.5 22.8 26.3 24.6 26.3 24.6 24.6 26.3 24.6 26.3 22.8 28 22.8 28 21.1 28 21 28 19.3 28 17.6 28 17.5 28 15.8 26.3 15.8"/>
  <polygon class="st0" points="19.2 22.8 17.6 22.8 17.6 21 15.8 21 15.8 19.3 14 19.3 14 21.1 15.8 21.1 15.8 22.8 17.5 22.8 17.5 24.6 19.2 24.6 19.3 24.6 21 24.6 21 22.8 19.3 22.8 19.2 22.8"/>
  <polygon class="st0" points="22.8 21.1 24.6 21.1 24.6 19.3 22.8 19.3 22.8 21 21 21 21 22.8 22.8 22.8 22.8 21.1"/>
</svg>